<mxfile host="Electron" modified="2024-05-01T17:59:39.582Z" agent="Mozilla/5.0 (Macintosh; Intel Mac OS X 10_15_7) AppleWebKit/537.36 (KHTML, like Gecko) draw.io/24.2.5 Chrome/120.0.6099.109 Electron/28.1.0 Safari/537.36" etag="F7VztpGb9pBxVTEPatlP" version="24.2.5" type="device">
  <diagram name="Page-1" id="6yqtwsiS59JPtxT8PI23">
    <mxGraphModel dx="1042" dy="538" grid="0" gridSize="10" guides="1" tooltips="1" connect="1" arrows="1" fold="1" page="0" pageScale="1" pageWidth="827" pageHeight="1169" math="0" shadow="0">
      <root>
        <mxCell id="0" />
        <mxCell id="1" parent="0" />
        <mxCell id="goucfzLOdO5QTq2yi7bm-1" value="" style="rounded=1;whiteSpace=wrap;html=1;dashed=1;fillColor=#f5f5f5;strokeColor=#666666;fontColor=#333333;" parent="1" vertex="1">
          <mxGeometry x="-50" y="99" width="239" height="207" as="geometry" />
        </mxCell>
        <mxCell id="goucfzLOdO5QTq2yi7bm-3" value="postgres" style="shape=cube;whiteSpace=wrap;html=1;boundedLbl=1;backgroundOutline=1;darkOpacity=0.05;darkOpacity2=0.1;fillColor=#dae8fc;strokeColor=#6c8ebf;" parent="1" vertex="1">
          <mxGeometry x="10" y="158.5" width="120" height="80" as="geometry" />
        </mxCell>
        <mxCell id="goucfzLOdO5QTq2yi7bm-6" value="docker run \&lt;div style=&quot;font-size: 12px;&quot;&gt;-e &quot;POSTGRES_PASSWORD=gophers&quot; \&lt;/div&gt;&lt;div style=&quot;font-size: 12px;&quot;&gt;postgres&lt;/div&gt;" style="text;html=1;align=center;verticalAlign=middle;resizable=0;points=[];autosize=1;strokeColor=#666666;fillColor=#f5f5f5;fontSize=12;rounded=1;fontColor=#333333;" parent="1" vertex="1">
          <mxGeometry x="-50" y="27" width="240" height="55" as="geometry" />
        </mxCell>
        <mxCell id="goucfzLOdO5QTq2yi7bm-8" value="docker run \&lt;div style=&quot;font-size: 12px;&quot;&gt;-e &quot;POSTGRES_PASSWORD=gophers&quot; \&lt;/div&gt;&lt;div style=&quot;font-size: 12px;&quot;&gt;-p 5432:5432 \&lt;/div&gt;&lt;div style=&quot;font-size: 12px;&quot;&gt;postgres&lt;/div&gt;" style="text;html=1;align=center;verticalAlign=middle;resizable=0;points=[];autosize=1;strokeColor=#666666;fillColor=#f5f5f5;fontSize=12;rounded=1;fontColor=#333333;fontStyle=0;textShadow=0;labelBorderColor=none;labelBackgroundColor=none;" parent="1" vertex="1">
          <mxGeometry x="218" y="18" width="240" height="70" as="geometry" />
        </mxCell>
        <mxCell id="goucfzLOdO5QTq2yi7bm-9" value="" style="rounded=1;whiteSpace=wrap;html=1;dashed=1;fillColor=#f5f5f5;strokeColor=#666666;fontColor=#333333;" parent="1" vertex="1">
          <mxGeometry x="218" y="99" width="239" height="207" as="geometry" />
        </mxCell>
        <mxCell id="goucfzLOdO5QTq2yi7bm-4" value="postgres" style="shape=cube;whiteSpace=wrap;html=1;boundedLbl=1;backgroundOutline=1;darkOpacity=0.05;darkOpacity2=0.1;fillColor=#dae8fc;strokeColor=#6c8ebf;" parent="1" vertex="1">
          <mxGeometry x="278" y="158.5" width="120" height="80" as="geometry" />
        </mxCell>
        <mxCell id="goucfzLOdO5QTq2yi7bm-12" value="localhost:5432" style="shape=step;perimeter=stepPerimeter;whiteSpace=wrap;html=1;fixedSize=1;fillColor=#f8cecc;strokeColor=#b85450;" parent="1" vertex="1">
          <mxGeometry x="11" y="348" width="135" height="47" as="geometry" />
        </mxCell>
        <mxCell id="goucfzLOdO5QTq2yi7bm-13" value="" style="ellipse;whiteSpace=wrap;html=1;aspect=fixed;fillColor=#d5e8d4;strokeColor=#82b366;strokeWidth=2;perimeterSpacing=0;" parent="1" vertex="1">
          <mxGeometry x="75" y="233" width="12" height="12" as="geometry" />
        </mxCell>
        <mxCell id="goucfzLOdO5QTq2yi7bm-14" value="5432" style="text;html=1;align=center;verticalAlign=middle;resizable=0;points=[];autosize=1;strokeColor=none;fillColor=none;fontSize=16;" parent="1" vertex="1">
          <mxGeometry x="87" y="245" width="54" height="31" as="geometry" />
        </mxCell>
        <mxCell id="goucfzLOdO5QTq2yi7bm-15" value="" style="ellipse;whiteSpace=wrap;html=1;aspect=fixed;fillColor=#d5e8d4;strokeColor=#82b366;strokeWidth=2;perimeterSpacing=0;" parent="1" vertex="1">
          <mxGeometry x="342" y="233" width="12" height="12" as="geometry" />
        </mxCell>
        <mxCell id="goucfzLOdO5QTq2yi7bm-16" value="5432" style="text;html=1;align=center;verticalAlign=middle;resizable=0;points=[];autosize=1;strokeColor=none;fillColor=none;fontSize=16;" parent="1" vertex="1">
          <mxGeometry x="358" y="245" width="54" height="31" as="geometry" />
        </mxCell>
        <mxCell id="goucfzLOdO5QTq2yi7bm-17" value="" style="ellipse;whiteSpace=wrap;html=1;aspect=fixed;fillColor=#d5e8d4;strokeColor=#82b366;strokeWidth=2;perimeterSpacing=0;" parent="1" vertex="1">
          <mxGeometry x="342" y="302" width="12" height="12" as="geometry" />
        </mxCell>
        <mxCell id="goucfzLOdO5QTq2yi7bm-18" value="5432" style="text;html=1;align=center;verticalAlign=middle;resizable=0;points=[];autosize=1;strokeColor=none;fillColor=none;fontSize=16;" parent="1" vertex="1">
          <mxGeometry x="358" y="314" width="54" height="31" as="geometry" />
        </mxCell>
        <mxCell id="goucfzLOdO5QTq2yi7bm-19" value="" style="endArrow=classic;html=1;rounded=0;fontSize=12;startSize=8;endSize=8;curved=1;exitX=0.5;exitY=0;exitDx=0;exitDy=0;entryX=0.54;entryY=1;entryDx=0;entryDy=0;entryPerimeter=0;" parent="1" source="goucfzLOdO5QTq2yi7bm-12" target="goucfzLOdO5QTq2yi7bm-1" edge="1">
          <mxGeometry width="50" height="50" relative="1" as="geometry">
            <mxPoint x="186" y="297" as="sourcePoint" />
            <mxPoint x="236" y="247" as="targetPoint" />
          </mxGeometry>
        </mxCell>
        <mxCell id="goucfzLOdO5QTq2yi7bm-20" value="localhost:5432" style="shape=step;perimeter=stepPerimeter;whiteSpace=wrap;html=1;fixedSize=1;fillColor=#d5e8d4;strokeColor=#82b366;" parent="1" vertex="1">
          <mxGeometry x="280.5" y="348" width="135" height="47" as="geometry" />
        </mxCell>
        <mxCell id="goucfzLOdO5QTq2yi7bm-21" value="" style="endArrow=classic;html=1;rounded=0;fontSize=12;startSize=8;endSize=8;curved=1;exitX=0.5;exitY=0;exitDx=0;exitDy=0;entryX=0.5;entryY=1;entryDx=0;entryDy=0;" parent="1" source="goucfzLOdO5QTq2yi7bm-20" target="goucfzLOdO5QTq2yi7bm-17" edge="1">
          <mxGeometry width="50" height="50" relative="1" as="geometry">
            <mxPoint x="89" y="358" as="sourcePoint" />
            <mxPoint x="89" y="316" as="targetPoint" />
          </mxGeometry>
        </mxCell>
        <mxCell id="goucfzLOdO5QTq2yi7bm-22" value="" style="endArrow=none;html=1;rounded=0;fontSize=12;startSize=8;endSize=8;curved=1;entryX=0.5;entryY=1;entryDx=0;entryDy=0;exitX=0.5;exitY=0;exitDx=0;exitDy=0;fillColor=#d5e8d4;strokeColor=#82b366;strokeWidth=2;" parent="1" source="goucfzLOdO5QTq2yi7bm-17" target="goucfzLOdO5QTq2yi7bm-15" edge="1">
          <mxGeometry width="50" height="50" relative="1" as="geometry">
            <mxPoint x="186" y="297" as="sourcePoint" />
            <mxPoint x="236" y="247" as="targetPoint" />
          </mxGeometry>
        </mxCell>
        <mxCell id="goucfzLOdO5QTq2yi7bm-23" value="Docker" style="text;html=1;align=center;verticalAlign=middle;resizable=0;points=[];autosize=1;strokeColor=none;fillColor=none;fontSize=16;" parent="1" vertex="1">
          <mxGeometry x="230" y="108" width="69" height="31" as="geometry" />
        </mxCell>
        <mxCell id="goucfzLOdO5QTq2yi7bm-24" value="Docker" style="text;html=1;align=center;verticalAlign=middle;resizable=0;points=[];autosize=1;strokeColor=none;fillColor=none;fontSize=16;" parent="1" vertex="1">
          <mxGeometry x="-40" y="108" width="69" height="31" as="geometry" />
        </mxCell>
      </root>
    </mxGraphModel>
  </diagram>
</mxfile>
